<svg id="Layer_1" data-name="Layer 1" xmlns="http://www.w3.org/2000/svg" viewBox="0 0 24 24" stroke-width="1.5" width="28" height="28" color="#000000"><defs><style>.cls-637b7d2ff95e86b59c579f8a-1{fill:none;stroke:currentColor;stroke-miterlimit:10;}</style></defs><path class="cls-637b7d2ff95e86b59c579f8a-1" d="M19.62,9.12a7.62,7.62,0,0,0-15.24,0C4.38,14.83,12,21.5,12,21.5S19.62,14.83,19.62,9.12Z"></path><path class="cls-637b7d2ff95e86b59c579f8a-1" d="M13.73,6.26a2.1,2.1,0,0,0-1.73.9,2.1,2.1,0,0,0-1.73-.9,2,2,0,0,0-2.08,2c0,3,3.81,4.67,3.81,4.67s3.81-1.67,3.81-4.67A2,2,0,0,0,13.73,6.26Z"></path></svg>